<svg version="1.1" id="Layer_1" xmlns="http://www.w3.org/2000/svg" xmlns:xlink="http://www.w3.org/1999/xlink" x="0px" y="0px"
	 width="100%" viewBox="0 0 198 209" enable-background="new 0 0 198 209" xml:space="preserve">
<path fill="#FFFFFF" opacity="1.000000" stroke="none" 
	d="
M104.000000,210.000000 
	C101.299370,210.000000 98.598747,210.000000 95.737885,209.704773 
	C90.225090,205.354294 84.872536,201.299026 79.482170,197.215118 
	C79.648651,198.429642 79.804253,199.564758 80.095863,201.692123 
	C68.960793,197.889145 60.417355,191.632568 52.387978,184.000931 
	C51.861431,183.646759 51.526108,183.515381 51.190788,183.384003 
	C51.433750,183.947723 51.676720,184.511459 51.956696,185.477951 
	C51.888420,187.246338 51.783131,188.611938 51.632610,190.564178 
	C38.988483,180.680695 29.731897,169.285294 25.801714,153.963181 
	C25.380896,154.140869 24.960077,154.318558 24.539259,154.496246 
	C24.539259,156.981461 24.539259,159.466660 24.539259,162.789352 
	C19.023424,156.440155 15.919040,150.147202 15.956000,142.299423 
	C16.075161,116.997543 15.996363,91.694740 16.011391,66.392303 
	C16.012205,65.023582 16.172750,63.654957 16.308348,61.501705 
	C19.807997,65.104469 22.981525,67.860886 25.486225,71.129784 
	C27.151756,73.303482 28.266083,76.114716 28.896536,78.811394 
	C29.669693,82.118469 29.589355,85.615883 30.039942,89.009506 
	C30.978456,96.077965 37.281048,98.312485 42.007023,101.907913 
	C42.558762,102.327660 43.936115,101.900665 44.833267,101.587250 
	C49.054806,100.112511 53.228283,98.500641 57.444881,97.011215 
	C66.913521,93.666626 76.397530,90.365578 86.265015,86.910347 
	C82.341461,85.136665 79.076126,83.660530 75.810783,82.184402 
	C76.069717,81.441025 76.328651,80.697647 76.587585,79.954269 
	C78.874657,80.584465 81.279556,80.946259 83.429016,81.889900 
	C94.555061,86.774391 105.553391,87.015648 116.662453,81.760811 
	C118.545898,80.869904 120.928551,81.034363 123.045288,81.048904 
	C122.995155,81.838348 122.980301,82.290115 122.695602,83.003036 
	C119.000595,84.199089 115.575432,85.134010 111.818893,86.038177 
	C110.784431,86.240906 110.081367,86.474380 109.378296,86.707855 
	C109.439445,86.919754 109.500587,87.131645 109.561737,87.343536 
	C110.424339,87.206146 111.286942,87.068756 112.544197,86.934044 
	C126.059151,91.532738 139.204941,96.057831 152.286697,100.761040 
	C157.246124,102.544083 167.879700,97.737358 168.927887,92.703819 
	C169.884018,88.112427 170.559341,83.433571 170.942490,78.759171 
	C171.425034,72.872162 178.148651,64.302979 183.999603,62.700031 
	C183.999603,89.868851 184.103424,117.027588 183.923050,144.184448 
	C183.880524,150.587494 181.578369,156.372131 176.357651,160.993286 
	C175.985474,158.123901 175.669830,155.690338 175.354187,153.256775 
	C169.714218,169.073853 156.650955,186.889343 147.893250,189.278915 
	C147.893250,187.620697 147.893250,186.015610 147.893250,183.837036 
	C139.748459,191.778976 130.998230,197.809189 120.145996,201.468353 
	C120.032043,199.618652 119.961800,198.478561 119.925545,197.889984 
	C114.646004,201.364304 109.522530,204.699585 104.466225,208.133774 
	C104.070747,208.402374 104.144386,209.361694 104.000000,210.000000 
M68.997787,125.506042 
	C73.660545,128.167053 77.921791,130.385361 83.999176,128.287216 
	C90.127968,126.171310 97.003799,125.292671 103.508926,125.469398 
	C109.324333,125.627388 115.074615,127.989128 120.869965,129.306686 
	C121.655342,129.485245 122.636314,129.474365 123.354187,129.158768 
	C125.976807,128.005783 128.535751,126.705444 131.100815,125.424820 
	C133.672058,124.141113 136.221970,122.814629 138.870163,121.461449 
	C112.741562,110.094124 86.942619,110.361336 60.931000,121.490936 
	C63.518150,122.722069 65.950233,123.879417 68.997787,125.506042 
M89.345840,86.342133 
	C89.020493,86.585800 88.695152,86.829475 88.369804,87.073135 
	C88.569893,87.279152 88.769981,87.485161 88.970070,87.691177 
	C89.225143,87.375931 89.480209,87.060677 89.345840,86.342133 
z"/>
<path fill="#000000" opacity="1.000000" stroke="none" 
	d="
M123.080566,80.711227 
	C120.928551,81.034363 118.545898,80.869904 116.662453,81.760811 
	C105.553391,87.015648 94.555061,86.774391 83.429016,81.889900 
	C81.279556,80.946259 78.874657,80.584465 76.587585,79.954269 
	C76.328651,80.697647 76.069717,81.441025 75.810783,82.184402 
	C79.076126,83.660530 82.341461,85.136665 86.265015,86.910347 
	C76.397530,90.365578 66.913521,93.666626 57.444881,97.011215 
	C53.228283,98.500641 49.054806,100.112511 44.833267,101.587250 
	C43.936115,101.900665 42.558762,102.327660 42.007023,101.907913 
	C37.281048,98.312485 30.978456,96.077965 30.039942,89.009506 
	C29.589355,85.615883 29.669693,82.118469 28.896536,78.811394 
	C28.266083,76.114716 27.151756,73.303482 25.486225,71.129784 
	C22.981525,67.860886 19.807997,65.104469 16.308348,61.501705 
	C16.172750,63.654957 16.012205,65.023582 16.011391,66.392303 
	C15.996363,91.694740 16.075161,116.997543 15.956000,142.299423 
	C15.919040,150.147202 19.023424,156.440155 24.539259,162.789352 
	C24.539259,159.466660 24.539259,156.981461 24.539259,154.496246 
	C24.960077,154.318558 25.380896,154.140869 25.801714,153.963181 
	C29.731897,169.285294 38.988483,180.680695 51.632610,190.564178 
	C51.783131,188.611938 51.888420,187.246338 52.131187,185.272522 
	C52.372177,184.517471 52.475685,184.370590 52.579197,184.223724 
	C60.417355,191.632568 68.960793,197.889145 80.095863,201.692123 
	C79.804253,199.564758 79.648651,198.429642 79.482170,197.215118 
	C84.872536,201.299026 90.225090,205.354294 95.288826,209.704773 
	C63.714993,210.000000 32.429985,210.000000 1.000000,210.000000 
	C1.000000,146.979172 1.000000,83.958244 1.443561,20.468388 
	C5.463865,20.337488 9.091511,20.426949 12.590729,21.143539 
	C13.877663,21.407084 15.546666,22.989084 15.847928,24.253950 
	C16.597589,27.401449 16.866276,30.706343 16.961714,33.958790 
	C17.247265,43.690353 28.467745,59.637428 37.751347,61.722317 
	C44.851212,63.316784 52.370033,64.180496 59.595371,63.713112 
	C65.119637,63.355762 71.123016,61.411259 75.778152,58.411308 
	C86.782623,51.319595 91.062370,40.096596 92.042702,27.371635 
	C92.380264,22.990000 95.718216,21.891342 99.402740,22.057297 
	C103.066498,22.222319 107.084831,22.121172 108.021362,27.188202 
	C108.924225,32.073116 109.337891,37.192543 111.153915,41.734135 
	C114.765274,50.765621 120.189056,58.909039 130.231094,61.462704 
	C137.093323,63.207745 144.502182,64.364914 151.479584,63.729797 
	C161.980011,62.773998 171.168518,58.712624 177.254349,48.739769 
	C181.679749,41.487831 182.976105,33.851940 184.146240,25.855049 
	C184.403275,24.098419 186.246613,21.629353 187.823822,21.201941 
	C191.395493,20.234039 195.256592,20.334183 199.000000,20.000000 
	C199.000000,83.236000 199.000000,146.472000 199.000000,210.000000 
	C167.646378,210.000000 136.291840,210.000000 104.468658,210.000000 
	C104.144386,209.361694 104.070747,208.402374 104.466225,208.133774 
	C109.522530,204.699585 114.646004,201.364304 119.925545,197.889984 
	C119.961800,198.478561 120.032043,199.618652 120.145996,201.468353 
	C130.998230,197.809189 139.748459,191.778976 147.893250,183.837036 
	C147.893250,186.015610 147.893250,187.620697 147.893250,189.278915 
	C156.650955,186.889343 169.714218,169.073853 175.354187,153.256775 
	C175.669830,155.690338 175.985474,158.123901 176.357651,160.993286 
	C181.578369,156.372131 183.880524,150.587494 183.923050,144.184448 
	C184.103424,117.027588 183.999603,89.868851 183.999603,62.700031 
	C178.148651,64.302979 171.425034,72.872162 170.942490,78.759171 
	C170.559341,83.433571 169.884018,88.112427 168.927887,92.703819 
	C167.879700,97.737358 157.246124,102.544083 152.286697,100.761040 
	C139.204941,96.057831 126.059151,91.532738 112.491180,86.718391 
	C112.043510,86.500053 112.150276,86.068924 112.150276,86.068924 
	C115.575432,85.134010 119.000595,84.199089 122.980370,82.904938 
	C123.383514,81.934219 123.232040,81.322723 123.080566,80.711227 
z"/>
<path fill="#FFFFFF" opacity="1.000000" stroke="none" 
	d="
M199.000000,19.536816 
	C195.256592,20.334183 191.395493,20.234039 187.823822,21.201941 
	C186.246613,21.629353 184.403275,24.098419 184.146240,25.855049 
	C182.976105,33.851940 181.679749,41.487831 177.254349,48.739769 
	C171.168518,58.712624 161.980011,62.773998 151.479584,63.729797 
	C144.502182,64.364914 137.093323,63.207745 130.231094,61.462704 
	C120.189056,58.909039 114.765274,50.765621 111.153915,41.734135 
	C109.337891,37.192543 108.924225,32.073116 108.021362,27.188202 
	C107.084831,22.121172 103.066498,22.222319 99.402740,22.057297 
	C95.718216,21.891342 92.380264,22.990000 92.042702,27.371635 
	C91.062370,40.096596 86.782623,51.319595 75.778152,58.411308 
	C71.123016,61.411259 65.119637,63.355762 59.595371,63.713112 
	C52.370033,64.180496 44.851212,63.316784 37.751347,61.722317 
	C28.467745,59.637428 17.247265,43.690353 16.961714,33.958790 
	C16.866276,30.706343 16.597589,27.401449 15.847928,24.253950 
	C15.546666,22.989084 13.877663,21.407084 12.590729,21.143539 
	C9.091511,20.426949 5.463865,20.337488 1.443561,19.999731 
	C1.000000,15.975455 1.000000,11.950912 1.401989,7.459475 
	C5.985804,5.994197 10.211100,5.144460 14.332444,3.939251 
	C16.643814,3.263335 18.783152,1.999143 21.000000,1.000000 
	C40.354229,1.000000 59.708454,1.000000 79.232178,1.350345 
	C88.968803,5.854857 98.383598,10.755511 109.212624,6.908093 
	C111.306587,5.398932 113.708366,4.240983 116.056335,2.982645 
	C117.093773,2.426657 118.022125,1.667127 119.000000,1.000001 
	C138.354233,1.000000 157.708450,1.000000 177.231750,1.354274 
	C184.600540,3.472364 191.800278,5.236182 199.000000,7.000000 
	C199.000000,11.024545 199.000000,15.049088 199.000000,19.536816 
M143.566376,11.999697 
	C138.829880,12.337733 134.040863,12.351918 129.372406,13.109350 
	C125.120224,13.799243 119.690872,14.064627 119.196922,19.848871 
	C118.390388,29.293571 118.319115,38.614304 125.714920,46.375118 
	C132.397537,53.387535 140.582520,54.156521 149.395767,54.040401 
	C162.108353,53.872906 173.121811,41.818371 172.060715,31.067656 
	C171.687088,27.282230 171.753891,23.405489 172.088028,19.611704 
	C172.412888,15.923708 170.481903,14.388512 167.426163,14.057455 
	C159.812317,13.232577 152.170242,12.668527 143.566376,11.999697 
M69.727089,13.957815 
	C69.300919,13.697301 68.876663,13.212686 68.448303,13.209037 
	C57.638733,13.116938 46.820202,12.827810 36.024826,13.199753 
	C33.341103,13.292217 28.591661,15.353531 28.453722,16.847898 
	C27.806040,23.864519 26.853809,31.499166 28.908855,37.996361 
	C34.760765,56.497635 56.461510,57.366901 68.843117,50.501556 
	C78.718292,45.025970 81.313972,35.475113 81.098534,24.671616 
	C80.967865,18.118774 77.642883,12.676720 69.727089,13.957815 
z"/>
<path fill="#000000" opacity="1.000000" stroke="none" 
	d="
M118.531342,1.000001 
	C118.022125,1.667127 117.093773,2.426657 116.056335,2.982645 
	C113.708366,4.240983 111.306587,5.398932 109.212624,6.908093 
	C98.383598,10.755511 88.968803,5.854857 79.700836,1.350345 
	C92.687561,1.000000 105.375122,1.000000 118.531342,1.000001 
z"/>
<path fill="#000000" opacity="1.000000" stroke="none" 
	d="
M199.000000,6.500528 
	C191.800278,5.236182 184.600540,3.472364 177.700409,1.354274 
	C185.000107,1.000000 192.000214,1.000000 199.000000,1.000000 
	C199.000000,2.730484 199.000000,4.365770 199.000000,6.500528 
z"/>
<path fill="#000000" opacity="1.000000" stroke="none" 
	d="
M20.530956,1.000000 
	C18.783152,1.999143 16.643814,3.263335 14.332444,3.939251 
	C10.211100,5.144460 5.985804,5.994197 1.401989,6.996291 
	C1.000000,5.034359 1.000000,3.068719 1.000000,1.000000 
	C7.353713,1.000000 13.707813,1.000000 20.530956,1.000000 
z"/>
<path fill="#000000" opacity="1.000000" stroke="none" 
	d="
M68.690048,125.271408 
	C65.950233,123.879417 63.518150,122.722069 60.931000,121.490936 
	C86.942619,110.361336 112.741562,110.094124 138.870163,121.461449 
	C136.221970,122.814629 133.672058,124.141113 131.100815,125.424820 
	C128.535751,126.705444 125.976807,128.005783 123.354187,129.158768 
	C122.636314,129.474365 121.655342,129.485245 120.869965,129.306686 
	C115.074615,127.989128 109.324333,125.627388 103.508926,125.469398 
	C97.003799,125.292671 90.127968,126.171310 83.999176,128.287216 
	C77.921791,130.385361 73.660545,128.167053 68.690048,125.271408 
z"/>
<path fill="#E6E6E6" opacity="1.000000" stroke="none" 
	d="
M89.540558,86.543777 
	C89.480209,87.060677 89.225143,87.375931 88.970070,87.691177 
	C88.769981,87.485161 88.569893,87.279152 88.369812,87.073135 
	C88.695152,86.829475 89.020493,86.585800 89.540558,86.543777 
z"/>
<path fill="#E6E6E6" opacity="1.000000" stroke="none" 
	d="
M111.818893,86.038177 
	C112.150276,86.068924 112.043510,86.500053 112.096527,86.715706 
	C111.286942,87.068756 110.424339,87.206146 109.561737,87.343536 
	C109.500587,87.131645 109.439445,86.919754 109.378296,86.707855 
	C110.081367,86.474380 110.784431,86.240906 111.818893,86.038177 
z"/>
<path fill="#E6E6E6" opacity="1.000000" stroke="none" 
	d="
M123.045288,81.048904 
	C123.232040,81.322723 123.383514,81.934219 123.250214,82.643799 
	C122.980301,82.290115 122.995155,81.838348 123.045288,81.048904 
z"/>
<path fill="#000000" opacity="1.000000" stroke="none" 
	d="
M52.094177,184.869751 
	C51.676720,184.511459 51.433750,183.947723 51.190788,183.384003 
	C51.526108,183.515381 51.861431,183.646759 52.387978,184.000931 
	C52.475685,184.370590 52.372177,184.517471 52.094177,184.869751 
z"/>
<path fill="#000000" opacity="1.000000" stroke="none" 
	d="
M144.052933,11.999732 
	C152.170242,12.668527 159.812317,13.232577 167.426163,14.057455 
	C170.481903,14.388512 172.412888,15.923708 172.088028,19.611704 
	C171.753891,23.405489 171.687088,27.282230 172.060715,31.067656 
	C173.121811,41.818371 162.108353,53.872906 149.395767,54.040401 
	C140.582520,54.156521 132.397537,53.387535 125.714920,46.375118 
	C118.319115,38.614304 118.390388,29.293571 119.196922,19.848871 
	C119.690872,14.064627 125.120224,13.799243 129.372406,13.109350 
	C134.040863,12.351918 138.829880,12.337733 144.052933,11.999732 
z"/>
<path fill="#000000" opacity="1.000000" stroke="none" 
	d="
M70.171402,13.977210 
	C77.642883,12.676720 80.967865,18.118774 81.098534,24.671616 
	C81.313972,35.475113 78.718292,45.025970 68.843117,50.501556 
	C56.461510,57.366901 34.760765,56.497635 28.908855,37.996361 
	C26.853809,31.499166 27.806040,23.864519 28.453722,16.847898 
	C28.591661,15.353531 33.341103,13.292217 36.024826,13.199753 
	C46.820202,12.827810 57.638733,13.116938 68.448303,13.209037 
	C68.876663,13.212686 69.300919,13.697301 70.171402,13.977210 
z"/>
</svg>